<?xml version="1.0" encoding="UTF-8"?>
<svg version="1.1" xmlns="http://www.w3.org/2000/svg" width="32" height="32">
<path d="M0 0 C2.98804956 2.42559317 4.71882819 4.39876979 5.625 8.25 C1.9056744 13.2227247 -1.17035668 16.56738486 -7.375 18.25 C-13.42157306 18.49313143 -17.67042112 17.1887172 -22.375 13.25 C-24.75 10.5 -24.75 10.5 -26.375 8.25 C-25.21849173 3.33483986 -22.31644386 1.33988635 -18.4453125 -1.515625 C-12.20509601 -5.23620691 -5.71085557 -4.03913239 0 0 Z M-13.625 0.75 C-16.19718159 2.95472708 -16.71890719 4.96953596 -17.375 8.25 C-17.04166667 10.58333333 -17.04166667 10.58333333 -15.375 12.25 C-12.35697308 13.69340418 -10.43209061 14.48490903 -7.125 13.75 C-4.55281841 11.54527292 -4.03109281 9.53046404 -3.375 6.25 C-3.70833333 3.91666667 -3.70833333 3.91666667 -5.375 2.25 C-8.39302692 0.80659582 -10.31790939 0.01509097 -13.625 0.75 Z " fill="#FFFFFF" transform="translate(26.375,8.75)"/>
</svg>
